<svg width="121" height="40" viewBox="0 0 121 40" fill="none" xmlns="http://www.w3.org/2000/svg">
<rect width="121" height="40" rx="8" fill="#C46A2B"/>
<path d="M49.4091 26V14.3636H53.3409C54.2538 14.3636 55 14.5284 55.5795 14.858C56.1629 15.1837 56.5947 15.625 56.875 16.1818C57.1553 16.7386 57.2955 17.3598 57.2955 18.0455C57.2955 18.7311 57.1553 19.3542 56.875 19.9148C56.5985 20.4754 56.1705 20.9223 55.5909 21.2557C55.0114 21.5852 54.2689 21.75 53.3636 21.75H50.5455V20.5H53.3182C53.9432 20.5 54.4451 20.392 54.8239 20.1761C55.2027 19.9602 55.4773 19.6686 55.6477 19.3011C55.822 18.9299 55.9091 18.5114 55.9091 18.0455C55.9091 17.5795 55.822 17.1629 55.6477 16.7955C55.4773 16.428 55.2008 16.1402 54.8182 15.9318C54.4356 15.7197 53.928 15.6136 53.2955 15.6136H50.8182V26H49.4091ZM59.3835 26V17.2727H60.679V18.5909H60.7699C60.929 18.1591 61.2169 17.8087 61.6335 17.5398C62.0502 17.2708 62.5199 17.1364 63.0426 17.1364C63.1411 17.1364 63.2642 17.1383 63.4119 17.142C63.5597 17.1458 63.6714 17.1515 63.7472 17.1591V18.5227C63.7017 18.5114 63.5975 18.4943 63.4347 18.4716C63.2756 18.4451 63.107 18.4318 62.929 18.4318C62.5047 18.4318 62.1259 18.5208 61.7926 18.6989C61.4631 18.8731 61.2017 19.1155 61.0085 19.4261C60.8191 19.733 60.7244 20.0833 60.7244 20.4773V26H59.3835ZM68.7301 26.1818C67.8892 26.1818 67.1638 25.9962 66.554 25.625C65.9479 25.25 65.4801 24.7273 65.1506 24.0568C64.8248 23.3826 64.6619 22.5985 64.6619 21.7045C64.6619 20.8106 64.8248 20.0227 65.1506 19.3409C65.4801 18.6553 65.9384 18.1212 66.5256 17.7386C67.1165 17.3523 67.8059 17.1591 68.5938 17.1591C69.0483 17.1591 69.4972 17.2348 69.9403 17.3864C70.3835 17.5379 70.7869 17.7841 71.1506 18.125C71.5142 18.4621 71.804 18.9091 72.0199 19.4659C72.2358 20.0227 72.3438 20.7083 72.3438 21.5227V22.0909H65.6165V20.9318H70.9801C70.9801 20.4394 70.8816 20 70.6847 19.6136C70.4915 19.2273 70.215 18.9223 69.8551 18.6989C69.4991 18.4754 69.0786 18.3636 68.5938 18.3636C68.0597 18.3636 67.5975 18.4962 67.2074 18.7614C66.821 19.0227 66.5237 19.3636 66.3153 19.7841C66.107 20.2045 66.0028 20.6553 66.0028 21.1364V21.9091C66.0028 22.5682 66.1165 23.1269 66.3438 23.5852C66.5748 24.0398 66.8949 24.3864 67.304 24.625C67.7131 24.8598 68.1884 24.9773 68.7301 24.9773C69.0824 24.9773 69.4006 24.928 69.6847 24.8295C69.9725 24.7273 70.2206 24.5758 70.429 24.375C70.6373 24.1705 70.7983 23.9167 70.9119 23.6136L72.2074 23.9773C72.071 24.4167 71.8419 24.803 71.5199 25.1364C71.1979 25.4659 70.8002 25.7235 70.3267 25.9091C69.8532 26.0909 69.321 26.1818 68.7301 26.1818ZM81.2543 17.2727L78.027 26H76.6634L73.4361 17.2727H74.8906L77.2997 24.2273H77.3906L79.7997 17.2727H81.2543ZM83.0241 26V17.2727H84.3651V26H83.0241ZM83.706 15.8182C83.4446 15.8182 83.2192 15.7292 83.0298 15.5511C82.8442 15.3731 82.7514 15.1591 82.7514 14.9091C82.7514 14.6591 82.8442 14.4451 83.0298 14.267C83.2192 14.089 83.4446 14 83.706 14C83.9673 14 84.1908 14.089 84.3764 14.267C84.5658 14.4451 84.6605 14.6591 84.6605 14.9091C84.6605 15.1591 84.5658 15.3731 84.3764 15.5511C84.1908 15.7292 83.9673 15.8182 83.706 15.8182ZM90.3665 26.1818C89.5786 26.1818 88.8873 25.9943 88.2926 25.6193C87.7017 25.2443 87.2396 24.7197 86.9062 24.0455C86.5767 23.3712 86.4119 22.5833 86.4119 21.6818C86.4119 20.7727 86.5767 19.9792 86.9062 19.3011C87.2396 18.6231 87.7017 18.0966 88.2926 17.7216C88.8873 17.3466 89.5786 17.1591 90.3665 17.1591C91.1544 17.1591 91.8438 17.3466 92.4347 17.7216C93.0294 18.0966 93.4915 18.6231 93.821 19.3011C94.1544 19.9792 94.321 20.7727 94.321 21.6818C94.321 22.5833 94.1544 23.3712 93.821 24.0455C93.4915 24.7197 93.0294 25.2443 92.4347 25.6193C91.8438 25.9943 91.1544 26.1818 90.3665 26.1818ZM90.3665 24.9773C90.965 24.9773 91.4574 24.8239 91.8438 24.517C92.2301 24.2102 92.5161 23.8068 92.7017 23.3068C92.8873 22.8068 92.9801 22.2652 92.9801 21.6818C92.9801 21.0985 92.8873 20.5549 92.7017 20.0511C92.5161 19.5473 92.2301 19.1402 91.8438 18.8295C91.4574 18.5189 90.965 18.3636 90.3665 18.3636C89.768 18.3636 89.2756 18.5189 88.8892 18.8295C88.5028 19.1402 88.2169 19.5473 88.0312 20.0511C87.8456 20.5549 87.7528 21.0985 87.7528 21.6818C87.7528 22.2652 87.8456 22.8068 88.0312 23.3068C88.2169 23.8068 88.5028 24.2102 88.8892 24.517C89.2756 24.8239 89.768 24.9773 90.3665 24.9773ZM101.868 22.4318V17.2727H103.209V26H101.868V24.5227H101.777C101.572 24.9659 101.254 25.3428 100.822 25.6534C100.391 25.9602 99.8452 26.1136 99.1861 26.1136C98.6406 26.1136 98.1558 25.9943 97.7315 25.7557C97.3073 25.5133 96.974 25.1496 96.7315 24.6648C96.4891 24.1761 96.3679 23.5606 96.3679 22.8182V17.2727H97.7088V22.7273C97.7088 23.3636 97.8868 23.8712 98.2429 24.25C98.6027 24.6288 99.0611 24.8182 99.6179 24.8182C99.9512 24.8182 100.29 24.733 100.635 24.5625C100.983 24.392 101.275 24.1307 101.51 23.7784C101.749 23.4261 101.868 22.9773 101.868 22.4318ZM111.847 19.2273L110.642 19.5682C110.566 19.3674 110.455 19.1723 110.307 18.983C110.163 18.7898 109.966 18.6307 109.716 18.5057C109.466 18.3807 109.146 18.3182 108.756 18.3182C108.222 18.3182 107.777 18.4413 107.42 18.6875C107.068 18.9299 106.892 19.2386 106.892 19.6136C106.892 19.947 107.013 20.2102 107.256 20.4034C107.498 20.5966 107.877 20.7576 108.392 20.8864L109.688 21.2045C110.468 21.3939 111.049 21.6837 111.432 22.0739C111.814 22.4602 112.006 22.9583 112.006 23.5682C112.006 24.0682 111.862 24.5152 111.574 24.9091C111.29 25.303 110.892 25.6136 110.381 25.8409C109.869 26.0682 109.275 26.1818 108.597 26.1818C107.706 26.1818 106.97 25.9886 106.386 25.6023C105.803 25.2159 105.434 24.6515 105.278 23.9091L106.551 23.5909C106.672 24.0606 106.902 24.4129 107.239 24.6477C107.58 24.8826 108.025 25 108.574 25C109.199 25 109.695 24.8674 110.062 24.6023C110.434 24.3333 110.619 24.0114 110.619 23.6364C110.619 23.3333 110.513 23.0795 110.301 22.875C110.089 22.6667 109.763 22.5114 109.324 22.4091L107.869 22.0682C107.07 21.8788 106.483 21.5852 106.108 21.1875C105.737 20.786 105.551 20.2841 105.551 19.6818C105.551 19.1894 105.689 18.7538 105.966 18.375C106.246 17.9962 106.627 17.6989 107.108 17.483C107.593 17.267 108.142 17.1591 108.756 17.1591C109.619 17.1591 110.297 17.3485 110.79 17.7273C111.286 18.1061 111.638 18.6061 111.847 19.2273Z" fill="#D9D9D9"/>
<path d="M22 15L17 20L22 25" stroke="#D9D9D9" stroke-width="2" stroke-linecap="round" stroke-linejoin="round"/>
</svg>
