<svg width="92" height="40" viewBox="0 0 92 40" fill="none" xmlns="http://www.w3.org/2000/svg">
<rect width="92" height="40" rx="8" fill="#05BCCA"/>
<path d="M18.6364 14.3636V26H17.2727L10.9318 16.8636H10.8182V26H9.40909V14.3636H10.7727L17.1364 23.5227H17.25V14.3636H18.6364ZM24.9332 26.1818C24.0923 26.1818 23.367 25.9962 22.7571 25.625C22.151 25.25 21.6832 24.7273 21.3537 24.0568C21.0279 23.3826 20.8651 22.5985 20.8651 21.7045C20.8651 20.8106 21.0279 20.0227 21.3537 19.3409C21.6832 18.6553 22.1416 18.1212 22.7287 17.7386C23.3196 17.3523 24.009 17.1591 24.7969 17.1591C25.2514 17.1591 25.7003 17.2348 26.1435 17.3864C26.5866 17.5379 26.9901 17.7841 27.3537 18.125C27.7173 18.4621 28.0071 18.9091 28.223 19.4659C28.4389 20.0227 28.5469 20.7083 28.5469 21.5227V22.0909H21.8196V20.9318H27.1832C27.1832 20.4394 27.0848 20 26.8878 19.6136C26.6946 19.2273 26.4181 18.9223 26.0582 18.6989C25.7022 18.4754 25.2817 18.3636 24.7969 18.3636C24.2628 18.3636 23.8007 18.4962 23.4105 18.7614C23.0241 19.0227 22.7268 19.3636 22.5185 19.7841C22.3101 20.2045 22.206 20.6553 22.206 21.1364V21.9091C22.206 22.5682 22.3196 23.1269 22.5469 23.5852C22.7779 24.0398 23.098 24.3864 23.5071 24.625C23.9162 24.8598 24.3916 24.9773 24.9332 24.9773C25.2855 24.9773 25.6037 24.928 25.8878 24.8295C26.1757 24.7273 26.4238 24.5758 26.6321 24.375C26.8404 24.1705 27.0014 23.9167 27.1151 23.6136L28.4105 23.9773C28.2741 24.4167 28.045 24.803 27.723 25.1364C27.401 25.4659 27.0033 25.7235 26.5298 25.9091C26.0563 26.0909 25.5241 26.1818 24.9332 26.1818ZM31.3523 17.2727L33.4432 20.8409L35.5341 17.2727H37.0795L34.2614 21.6364L37.0795 26H35.5341L33.4432 22.6136L31.3523 26H29.8068L32.5795 21.6364L29.8068 17.2727H31.3523ZM42.7884 17.2727V18.4091H38.2656V17.2727H42.7884ZM39.5838 15.1818H40.9247V23.5C40.9247 23.8788 40.9796 24.1629 41.0895 24.3523C41.2031 24.5379 41.3471 24.6629 41.5213 24.7273C41.6993 24.7879 41.8868 24.8182 42.0838 24.8182C42.2315 24.8182 42.3527 24.8106 42.4474 24.7955C42.5421 24.7765 42.6179 24.7614 42.6747 24.75L42.9474 25.9545C42.8565 25.9886 42.7296 26.0227 42.5668 26.0568C42.4039 26.0947 42.1974 26.1136 41.9474 26.1136C41.5687 26.1136 41.1974 26.0322 40.8338 25.8693C40.474 25.7064 40.1747 25.4583 39.9361 25.125C39.7012 24.7917 39.5838 24.3712 39.5838 23.8636V15.1818Z" fill="#D9D9D9"/>
<path d="M70 25L75 20L70 15" stroke="#D9D9D9" stroke-width="2" stroke-linecap="round" stroke-linejoin="round"/>
</svg>
